<svg width="168" height="50" viewBox="0 0 168 50" fill="none" xmlns="http://www.w3.org/2000/svg">
<path d="M34.487 0.12604C33.3065 0.12604 32.1525 0.476497 31.171 1.13309C30.1895 1.78968 29.4246 2.7229 28.9731 3.8147C28.5216 4.9065 28.4037 6.10782 28.6343 7.2667C28.865 8.42558 29.4338 9.48994 30.2689 10.3252C31.104 11.1604 32.1678 11.7289 33.3257 11.9589C34.4837 12.1888 35.6838 12.0698 36.7741 11.617C37.8645 11.1641 38.7962 10.3977 39.4514 9.41475C40.1065 8.43178 40.4557 7.27639 40.4548 6.09474C40.4548 5.31051 40.3004 4.53397 40.0004 3.8095C39.7005 3.08503 39.2608 2.42683 38.7066 1.87252C38.1524 1.31822 37.4944 0.878664 36.7704 0.578992C36.0464 0.279319 35.2705 0.125407 34.487 0.12604Z" fill="#0C60FB"/>
<path d="M46.261 49.2215H57.1289V18.319H46.7419L46.261 49.2215Z" fill="white"/>
<path d="M91.6891 23.1664C93.6051 22.1315 95.2995 20.73 96.6758 19.0413C97.8299 17.5395 98.407 15.4713 98.407 12.8368C98.407 9.97113 97.7658 7.72485 96.4835 6.0979C95.1789 4.44972 93.4569 3.18153 91.4967 2.42522C89.3681 1.59346 87.1289 1.07934 84.8509 0.899341C82.4465 0.687548 77.0222 0.610535 77.0222 0.653857H66.1254V49.2699H80.0709C81.5953 49.2699 83.139 49.2218 84.7115 49.1303C86.2576 49.0426 87.7895 48.786 89.2798 48.365C90.7359 47.9601 92.1327 47.3662 93.4347 46.5984C94.7728 45.7976 95.9476 44.7508 96.897 43.513C97.8269 42.3043 98.5426 40.9448 99.0129 39.4937C99.4915 38.0398 99.7366 36.5191 99.739 34.9883C99.739 32.0778 99.0466 29.6855 97.6616 27.8114C96.094 25.7837 94.0394 24.1858 91.6891 23.1664ZM81.754 9.71762C82.7453 9.80141 83.7181 10.0351 84.6393 10.4108C85.4989 10.7496 86.2607 11.2971 86.8562 12.004C87.4656 12.7954 87.7725 13.7787 87.7218 14.7766C87.7756 15.7379 87.453 16.6824 86.8225 17.4095C86.1978 18.0745 85.4274 18.5852 84.572 18.9017C83.6469 19.2536 82.6743 19.4645 81.6867 19.5275C80.6704 19.5949 79.7472 19.6285 78.9168 19.6285C78.4119 19.6285 77.1183 19.5804 77.0462 19.5756V9.68392C77.1328 9.67911 80.7153 9.62616 81.754 9.71762ZM87.6064 37.3421C86.9756 38.1844 86.1507 38.8615 85.202 39.3156C84.1756 39.7923 83.0738 40.0855 81.9464 40.1821C80.7442 40.2976 79.5901 40.3553 78.484 40.3553C78.1631 40.3664 77.8417 40.3551 77.5223 40.3216C77.4493 40.3142 77.3788 40.2912 77.3155 40.2543C77.253 40.2146 77.1823 40.1899 77.1087 40.1821H77.0702V28.0714H77.2482C77.4069 28.0714 77.5319 28.028 77.6281 28.004C77.7533 27.9732 77.8801 27.9491 78.008 27.9318C78.1667 27.9318 78.4888 27.8981 79.013 27.8981C80.1116 27.9001 81.2095 27.9579 82.3022 28.0714C83.3662 28.1686 84.4073 28.4385 85.3847 28.8704C86.2924 29.2725 87.0798 29.9046 87.6689 30.7043C88.3093 31.6537 88.6248 32.7853 88.5681 33.9294C88.6279 35.1415 88.2902 36.34 87.6064 37.3421Z" fill="white"/>
<path d="M115.119 0.636261H104.107V49.233H114.72H115.119H132.518V40.15H115.119V0.636261Z" fill="white"/>
<path d="M167.838 0.708252H155.72L145.905 20.0054L136.398 0.708252H124.207L140.413 30.9994V49.2328H151.425V31.2064L151.363 31.0861L167.838 0.708252Z" fill="white"/>
<path d="M51.2804 0C50.1011 0 48.9482 0.350061 47.9676 1.00591C46.987 1.66176 46.2227 2.59394 45.7714 3.68458C45.3201 4.77521 45.202 5.97532 45.4321 7.13314C45.6622 8.29095 46.2301 9.35447 47.064 10.1892C47.8979 11.0239 48.9604 11.5924 50.1171 11.8227C51.2738 12.053 52.4728 11.9348 53.5624 11.4831C54.6519 11.0313 55.5832 10.2663 56.2384 9.28473C56.8937 8.30318 57.2434 7.14919 57.2434 5.9687C57.2421 4.38609 56.6135 2.86867 55.4955 1.7496C54.3775 0.630525 52.8615 0.00127475 51.2804 0Z" fill="#F8AD2D"/>
<path d="M26.2898 18.2337L21.9234 32.5971L11.9115 0.85231H0L16.9655 49.3769H26.9294L27.0833 48.9533C27.0833 48.9533 35.7632 24.7704 36.5422 23.0665C37.4716 20.9598 39.1201 19.2534 41.1924 18.253L26.2898 18.2337Z" fill="white"/>
</svg>
